<svg width="46" height="47" viewBox="0 0 46 47" fill="none" xmlns="http://www.w3.org/2000/svg">
<path d="M21.0559 20.9997C20.7858 21.273 20.5716 21.5975 20.4255 21.9546C20.2793 22.3117 20.2041 22.6944 20.2041 23.0809C20.2041 23.4674 20.2793 23.8501 20.4255 24.2072C20.5716 24.5643 20.7858 24.8888 21.0559 25.1621L23.1123 23.0809L21.0559 20.9997Z" fill="#000959"/>
<path d="M21.0559 25.1621C21.3259 25.4354 21.6465 25.6522 21.9994 25.8001C22.3522 25.948 22.7304 26.0241 23.1123 26.0241C23.4942 26.0241 23.8723 25.948 24.2252 25.8001C24.578 25.6522 24.8986 25.4354 25.1686 25.1621L23.1123 23.0809L21.0559 25.1621Z" fill="#000959"/>
<path d="M25.1686 25.1621C25.4387 24.8888 25.6529 24.5643 25.7991 24.2072C25.9452 23.8501 26.0204 23.4674 26.0204 23.0809C26.0204 22.6944 25.9452 22.3117 25.7991 21.9546C25.6529 21.5975 25.4387 21.273 25.1686 20.9997L23.1123 23.0809L25.1686 25.1621Z" fill="#000959"/>
<path d="M25.1686 20.9997C24.8986 20.7264 24.578 20.5096 24.2252 20.3617C23.8723 20.2138 23.4942 20.1377 23.1123 20.1377C22.7304 20.1377 22.3522 20.2138 21.9994 20.3617C21.6465 20.5096 21.3259 20.7264 21.0559 20.9997L23.1123 23.0809L25.1686 20.9997Z" fill="#000959"/>
<rect width="3.14526" height="3.14526" transform="matrix(0.690539 -0.723295 0.690539 0.723295 20.8584 23.0323)" fill="#0094FF"/>
<path d="M23.0084 21.2578L25.0478 23.0273H20.9691L23.0084 21.2578Z" fill="#0500FF"/>
<path d="M23.0358 25.333L20.8486 23.0273H25.2229L23.0358 25.333Z" fill="#02012D"/>
<mask id="path-8-inside-1_906_12374" fill="white">
<path d="M10.6209 10.7489C9.00065 12.3887 7.71537 14.3354 6.83848 16.4779C5.96158 18.6204 5.51025 20.9168 5.51025 23.2358C5.51025 25.5549 5.96159 27.8512 6.83848 29.9937C7.71537 32.1362 9.00066 34.0829 10.6209 35.7228L14.1394 32.1619C12.9812 30.9897 12.0624 29.5981 11.4356 28.0666C10.8088 26.535 10.4861 24.8935 10.4861 23.2358C10.4861 21.5781 10.8088 19.9366 11.4356 18.4051C12.0624 16.8735 12.9812 15.4819 14.1394 14.3097L10.6209 10.7489Z"/>
</mask>
<path d="M10.6209 10.7489C9.00065 12.3887 7.71537 14.3354 6.83848 16.4779C5.96158 18.6204 5.51025 20.9168 5.51025 23.2358C5.51025 25.5549 5.96159 27.8512 6.83848 29.9937C7.71537 32.1362 9.00066 34.0829 10.6209 35.7228L14.1394 32.1619C12.9812 30.9897 12.0624 29.5981 11.4356 28.0666C10.8088 26.535 10.4861 24.8935 10.4861 23.2358C10.4861 21.5781 10.8088 19.9366 11.4356 18.4051C12.0624 16.8735 12.9812 15.4819 14.1394 14.3097L10.6209 10.7489Z" fill="#0D009D" fill-opacity="0.7" stroke="black" stroke-width="0.4" mask="url(#path-8-inside-1_906_12374)"/>
<mask id="path-9-inside-2_906_12374" fill="white">
<path d="M31.9645 14.1217C30.7823 12.9252 29.377 11.9783 27.8303 11.3358C26.2836 10.6933 24.6262 10.368 22.9543 10.3789C21.2824 10.3898 19.6292 10.7366 18.0908 11.3992C16.5524 12.0618 15.1593 13.027 13.9923 14.2387L17.0282 17.2331C17.8033 16.4281 18.7288 15.7869 19.7508 15.3468C20.7727 14.9066 21.8709 14.6762 22.9815 14.669C24.0922 14.6618 25.1932 14.8778 26.2207 15.3046C27.2482 15.7314 28.1817 16.3605 28.967 17.1553L31.9645 14.1217Z"/>
</mask>
<path d="M31.9645 14.1217C30.7823 12.9252 29.377 11.9783 27.8303 11.3358C26.2836 10.6933 24.6262 10.368 22.9543 10.3789C21.2824 10.3898 19.6292 10.7366 18.0908 11.3992C16.5524 12.0618 15.1593 13.027 13.9923 14.2387L17.0282 17.2331C17.8033 16.4281 18.7288 15.7869 19.7508 15.3468C20.7727 14.9066 21.8709 14.6762 22.9815 14.669C24.0922 14.6618 25.1932 14.8778 26.2207 15.3046C27.2482 15.7314 28.1817 16.3605 28.967 17.1553L31.9645 14.1217Z" fill="#0D009D" fill-opacity="0.7" stroke="black" stroke-width="0.4" mask="url(#path-9-inside-2_906_12374)"/>
<mask id="path-10-inside-3_906_12374" fill="white">
<path d="M14.0333 14.1964C12.8704 15.3928 11.9518 16.8094 11.3298 18.3651C10.7078 19.9208 10.3947 21.5853 10.4084 23.2635C10.422 24.9417 10.7622 26.6007 11.4093 28.1459C12.0565 29.6911 12.9981 31.0921 14.1803 32.269L17.2347 29.1265C16.4602 28.3555 15.8434 27.4378 15.4195 26.4256C14.9955 25.4134 14.7727 24.3266 14.7638 23.2272C14.7549 22.1279 14.96 21.0375 15.3674 20.0184C15.7748 18.9993 16.3766 18.0714 17.1384 17.2876L14.0333 14.1964Z"/>
</mask>
<path d="M14.0333 14.1964C12.8704 15.3928 11.9518 16.8094 11.3298 18.3651C10.7078 19.9208 10.3947 21.5853 10.4084 23.2635C10.422 24.9417 10.7622 26.6007 11.4093 28.1459C12.0565 29.6911 12.9981 31.0921 14.1803 32.269L17.2347 29.1265C16.4602 28.3555 15.8434 27.4378 15.4195 26.4256C14.9955 25.4134 14.7727 24.3266 14.7638 23.2272C14.7549 22.1279 14.96 21.0375 15.3674 20.0184C15.7748 18.9993 16.3766 18.0714 17.1384 17.2876L14.0333 14.1964Z" fill="#0D009D" fill-opacity="0.7" stroke="black" stroke-width="0.4" mask="url(#path-10-inside-3_906_12374)"/>
<mask id="path-11-inside-4_906_12374" fill="white">
<path d="M29.0649 17.0565C28.27 16.2521 27.3241 15.6169 26.2827 15.1884C25.2414 14.76 24.1258 14.5469 23.0019 14.5618C21.8779 14.5768 20.7682 14.8193 19.7383 15.2753C18.7085 15.7312 17.7793 16.3913 17.0055 17.2165L20.9871 21.0401C21.2563 20.7529 21.5797 20.5232 21.9381 20.3645C22.2965 20.2059 22.6827 20.1215 23.0738 20.1163C23.465 20.1111 23.8532 20.1852 24.2156 20.3343C24.5779 20.4834 24.9071 20.7045 25.1837 20.9844L29.0649 17.0565Z"/>
</mask>
<path d="M29.0649 17.0565C28.27 16.2521 27.3241 15.6169 26.2827 15.1884C25.2414 14.76 24.1258 14.5469 23.0019 14.5618C21.8779 14.5768 20.7682 14.8193 19.7383 15.2753C18.7085 15.7312 17.7793 16.3913 17.0055 17.2165L20.9871 21.0401C21.2563 20.7529 21.5797 20.5232 21.9381 20.3645C22.2965 20.2059 22.6827 20.1215 23.0738 20.1163C23.465 20.1111 23.8532 20.1852 24.2156 20.3343C24.5779 20.4834 24.9071 20.7045 25.1837 20.9844L29.0649 17.0565Z" fill="#0D009D" fill-opacity="0.7" stroke="black" stroke-width="0.4" mask="url(#path-11-inside-4_906_12374)"/>
<mask id="path-12-inside-5_906_12374" fill="white">
<path d="M17.0584 17.1606C16.2902 17.9652 15.6861 18.915 15.2806 19.9559C14.8751 20.9967 14.6761 22.1082 14.6951 23.2269C14.714 24.3456 14.9505 25.4495 15.391 26.4757C15.8315 27.5019 16.4674 28.4302 17.2624 29.2076L21.0765 25.213C20.7998 24.9425 20.5785 24.6194 20.4252 24.2623C20.2719 23.9052 20.1896 23.521 20.1831 23.1317C20.1765 22.7424 20.2457 22.3556 20.3868 21.9934C20.5279 21.6312 20.7382 21.3006 21.0055 21.0206L17.0584 17.1606Z"/>
</mask>
<path d="M17.0584 17.1606C16.2902 17.9652 15.6861 18.915 15.2806 19.9559C14.8751 20.9967 14.6761 22.1082 14.6951 23.2269C14.714 24.3456 14.9505 25.4495 15.391 26.4757C15.8315 27.5019 16.4674 28.4302 17.2624 29.2076L21.0765 25.213C20.7998 24.9425 20.5785 24.6194 20.4252 24.2623C20.2719 23.9052 20.1896 23.521 20.1831 23.1317C20.1765 22.7424 20.2457 22.3556 20.3868 21.9934C20.5279 21.6312 20.7382 21.3006 21.0055 21.0206L17.0584 17.1606Z" fill="#0D009D" fill-opacity="0.7" stroke="black" stroke-width="0.4" mask="url(#path-12-inside-5_906_12374)"/>
<mask id="path-13-inside-6_906_12374" fill="white">
<path d="M17.1595 29.1053C17.9481 29.9034 18.8855 30.5349 19.9173 30.9633C20.9491 31.3916 22.0547 31.6082 23.1699 31.6005C24.285 31.5928 25.3876 31.3609 26.4135 30.9183C27.4394 30.4757 28.3682 29.8312 29.1459 29.0222L25.2119 25.1485C24.9413 25.43 24.6181 25.6543 24.2611 25.8083C23.904 25.9623 23.5204 26.043 23.1323 26.0457C22.7442 26.0484 22.3594 25.973 22.0004 25.824C21.6413 25.6749 21.3151 25.4551 21.0407 25.1774L17.1595 29.1053Z"/>
</mask>
<path d="M17.1595 29.1053C17.9481 29.9034 18.8855 30.5349 19.9173 30.9633C20.9491 31.3916 22.0547 31.6082 23.1699 31.6005C24.285 31.5928 25.3876 31.3609 26.4135 30.9183C27.4394 30.4757 28.3682 29.8312 29.1459 29.0222L25.2119 25.1485C24.9413 25.43 24.6181 25.6543 24.2611 25.8083C23.904 25.9623 23.5204 26.043 23.1323 26.0457C22.7442 26.0484 22.3594 25.973 22.0004 25.824C21.6413 25.6749 21.3151 25.4551 21.0407 25.1774L17.1595 29.1053Z" fill="#0D009D" fill-opacity="0.7" stroke="black" stroke-width="0.4" mask="url(#path-13-inside-6_906_12374)"/>
<mask id="path-14-inside-7_906_12374" fill="white">
<path d="M35.2975 10.7489C33.6772 9.10905 31.7537 7.80828 29.6367 6.92083C27.5197 6.03337 25.2507 5.5766 22.9592 5.5766C20.6678 5.5766 18.3988 6.03337 16.2818 6.92083C14.1648 7.80829 12.2412 9.10906 10.6209 10.7489L14.0228 14.1918C15.1964 13.0041 16.5896 12.062 18.1229 11.4192C19.6562 10.7764 21.2996 10.4456 22.9592 10.4456C24.6189 10.4456 26.2623 10.7764 27.7956 11.4192C29.3289 12.0619 30.7221 13.0041 31.8956 14.1918L35.2975 10.7489Z"/>
</mask>
<path d="M35.2975 10.7489C33.6772 9.10905 31.7537 7.80828 29.6367 6.92083C27.5197 6.03337 25.2507 5.5766 22.9592 5.5766C20.6678 5.5766 18.3988 6.03337 16.2818 6.92083C14.1648 7.80829 12.2412 9.10906 10.6209 10.7489L14.0228 14.1918C15.1964 13.0041 16.5896 12.062 18.1229 11.4192C19.6562 10.7764 21.2996 10.4456 22.9592 10.4456C24.6189 10.4456 26.2623 10.7764 27.7956 11.4192C29.3289 12.0619 30.7221 13.0041 31.8956 14.1918L35.2975 10.7489Z" fill="#0D009D" fill-opacity="0.7" stroke="black" stroke-width="0.4" mask="url(#path-14-inside-7_906_12374)"/>
<mask id="path-15-inside-8_906_12374" fill="white">
<path d="M39.1938 6.80561C37.0618 4.64796 34.5308 2.93643 31.7453 1.76872C28.9597 0.601011 25.9742 -6.91115e-07 22.9592 0C19.9441 6.91117e-07 16.9586 0.601013 14.1731 1.76872C11.3875 2.93643 8.85654 4.64797 6.72458 6.80561L10.7102 10.8392C12.3187 9.21128 14.2284 7.91993 16.3301 7.03889C18.4318 6.15785 20.6843 5.70439 22.9592 5.70439C25.234 5.70439 27.4866 6.15785 29.5883 7.03889C31.69 7.91992 33.5996 9.21128 35.2082 10.8392L39.1938 6.80561Z"/>
</mask>
<path d="M39.1938 6.80561C37.0618 4.64796 34.5308 2.93643 31.7453 1.76872C28.9597 0.601011 25.9742 -6.91115e-07 22.9592 0C19.9441 6.91117e-07 16.9586 0.601013 14.1731 1.76872C11.3875 2.93643 8.85654 4.64797 6.72458 6.80561L10.7102 10.8392C12.3187 9.21128 14.2284 7.91993 16.3301 7.03889C18.4318 6.15785 20.6843 5.70439 22.9592 5.70439C25.234 5.70439 27.4866 6.15785 29.5883 7.03889C31.69 7.91992 33.5996 9.21128 35.2082 10.8392L39.1938 6.80561Z" fill="#0D009D" fill-opacity="0.7" stroke="black" stroke-width="0.4" mask="url(#path-15-inside-8_906_12374)"/>
<mask id="path-16-inside-9_906_12374" fill="white">
<path d="M29.0649 29.1053C29.8515 28.3092 30.4744 27.3632 30.8976 26.322C31.3208 25.2808 31.5359 24.165 31.5305 23.0392C31.525 21.9133 31.2992 20.7998 30.8659 19.7628C30.4326 18.7258 29.8006 17.7861 29.0063 16.9978L25.1634 20.964C25.4398 21.2383 25.6597 21.5653 25.8105 21.9262C25.9613 22.2871 26.0399 22.6746 26.0418 23.0664C26.0437 23.4582 25.9688 23.8465 25.8215 24.2088C25.6743 24.5711 25.4575 24.9004 25.1837 25.1774L29.0649 29.1053Z"/>
</mask>
<path d="M29.0649 29.1053C29.8515 28.3092 30.4744 27.3632 30.8976 26.322C31.3208 25.2808 31.5359 24.165 31.5305 23.0392C31.525 21.9133 31.2992 20.7998 30.8659 19.7628C30.4326 18.7258 29.8006 17.7861 29.0063 16.9978L25.1634 20.964C25.4398 21.2383 25.6597 21.5653 25.8105 21.9262C25.9613 22.2871 26.0399 22.6746 26.0418 23.0664C26.0437 23.4582 25.9688 23.8465 25.8215 24.2088C25.6743 24.5711 25.4575 24.9004 25.1837 25.1774L29.0649 29.1053Z" fill="#0D009D" fill-opacity="0.7" stroke="black" stroke-width="0.4" mask="url(#path-16-inside-9_906_12374)"/>
<mask id="path-17-inside-10_906_12374" fill="white">
<path d="M31.8865 32.2732C33.0809 31.0853 34.0298 29.6689 34.6782 28.1063C35.3266 26.5437 35.6613 24.8662 35.6631 23.1714C35.6648 21.4767 35.3334 19.7985 34.6882 18.2346C34.043 16.6706 33.0969 15.2522 31.905 14.0618L28.9282 17.1148C29.7201 17.9057 30.3486 18.8481 30.7773 19.8871C31.2059 20.9261 31.4261 22.0411 31.4249 23.167C31.4238 24.293 31.2014 25.4075 30.7706 26.4456C30.3399 27.4838 29.7094 28.4248 28.9159 29.2141L31.8865 32.2732Z"/>
</mask>
<path d="M31.8865 32.2732C33.0809 31.0853 34.0298 29.6689 34.6782 28.1063C35.3266 26.5437 35.6613 24.8662 35.6631 23.1714C35.6648 21.4767 35.3334 19.7985 34.6882 18.2346C34.043 16.6706 33.0969 15.2522 31.905 14.0618L28.9282 17.1148C29.7201 17.9057 30.3486 18.8481 30.7773 19.8871C31.2059 20.9261 31.4261 22.0411 31.4249 23.167C31.4238 24.293 31.2014 25.4075 30.7706 26.4456C30.3399 27.4838 29.7094 28.4248 28.9159 29.2141L31.8865 32.2732Z" fill="#0D009D" fill-opacity="0.7" stroke="black" stroke-width="0.4" mask="url(#path-17-inside-10_906_12374)"/>
<mask id="path-18-inside-11_906_12374" fill="white">
<path d="M35.2975 35.7228C36.9245 34.0761 38.2137 32.1201 39.0908 29.9673C39.9679 27.8145 40.4156 25.5073 40.4081 23.1787C40.4007 20.85 39.9382 18.5459 39.0474 16.3988C38.1566 14.2518 36.8549 12.3043 35.2174 10.6683L31.8109 14.1608C32.9933 15.3421 33.9332 16.7485 34.5765 18.2988C35.2198 19.8492 35.5537 21.513 35.5591 23.1946C35.5644 24.8761 35.2411 26.542 34.6078 28.0966C33.9745 29.6512 33.0436 31.0636 31.8687 32.2526L35.2975 35.7228Z"/>
</mask>
<path d="M35.2975 35.7228C36.9245 34.0761 38.2137 32.1201 39.0908 29.9673C39.9679 27.8145 40.4156 25.5073 40.4081 23.1787C40.4007 20.85 39.9382 18.5459 39.0474 16.3988C38.1566 14.2518 36.8549 12.3043 35.2174 10.6683L31.8109 14.1608C32.9933 15.3421 33.9332 16.7485 34.5765 18.2988C35.2198 19.8492 35.5537 21.513 35.5591 23.1946C35.5644 24.8761 35.2411 26.542 34.6078 28.0966C33.9745 29.6512 33.0436 31.0636 31.8687 32.2526L35.2975 35.7228Z" fill="#0D009D" fill-opacity="0.7" stroke="black" stroke-width="0.4" mask="url(#path-18-inside-11_906_12374)"/>
<mask id="path-19-inside-12_906_12374" fill="white">
<path d="M39.1938 39.666C41.3333 37.5007 43.0288 34.9287 44.1829 32.098C45.3369 29.2673 45.9267 26.2336 45.9183 23.1714C45.9099 20.1092 45.3035 17.0789 44.134 14.2546C42.9644 11.4304 41.2549 8.86801 39.1035 6.71474L35.179 10.7308C36.8074 12.3607 38.1014 14.3002 38.9866 16.4378C39.8719 18.5755 40.3308 20.8692 40.3372 23.187C40.3435 25.5049 39.8971 27.8011 39.0236 29.9437C38.1501 32.0863 36.8668 34.0331 35.2473 35.672L39.1938 39.666Z"/>
</mask>
<path d="M39.1938 39.666C41.3333 37.5007 43.0288 34.9287 44.1829 32.098C45.3369 29.2673 45.9267 26.2336 45.9183 23.1714C45.9099 20.1092 45.3035 17.0789 44.134 14.2546C42.9644 11.4304 41.2549 8.86801 39.1035 6.71474L35.179 10.7308C36.8074 12.3607 38.1014 14.3002 38.9866 16.4378C39.8719 18.5755 40.3308 20.8692 40.3372 23.187C40.3435 25.5049 39.8971 27.8011 39.0236 29.9437C38.1501 32.0863 36.8668 34.0331 35.2473 35.672L39.1938 39.666Z" fill="#0D009D" fill-opacity="0.7" stroke="black" stroke-width="0.4" mask="url(#path-19-inside-12_906_12374)"/>
<mask id="path-20-inside-13_906_12374" fill="white">
<path d="M10.6209 35.7228C12.2457 37.3671 14.1755 38.6705 16.2993 39.5581C18.4232 40.4457 20.6994 40.9 22.9972 40.895C25.295 40.8899 27.5692 40.4256 29.6892 39.5287C31.8092 38.6317 33.7333 37.3198 35.3511 35.6683L31.8165 32.1222C30.6602 33.3027 29.285 34.2404 27.7696 34.8815C26.2543 35.5226 24.6288 35.8544 22.9864 35.8581C21.3439 35.8617 19.717 35.5369 18.1989 34.9025C16.6809 34.2681 15.3016 33.3365 14.1402 32.1611L10.6209 35.7228Z"/>
</mask>
<path d="M10.6209 35.7228C12.2457 37.3671 14.1755 38.6705 16.2993 39.5581C18.4232 40.4457 20.6994 40.9 22.9972 40.895C25.295 40.8899 27.5692 40.4256 29.6892 39.5287C31.8092 38.6317 33.7333 37.3198 35.3511 35.6683L31.8165 32.1222C30.6602 33.3027 29.285 34.2404 27.7696 34.8815C26.2543 35.5226 24.6288 35.8544 22.9864 35.8581C21.3439 35.8617 19.717 35.5369 18.1989 34.9025C16.6809 34.2681 15.3016 33.3365 14.1402 32.1611L10.6209 35.7228Z" fill="#0D009D" fill-opacity="0.7" stroke="black" stroke-width="0.4" mask="url(#path-20-inside-13_906_12374)"/>
<mask id="path-21-inside-14_906_12374" fill="white">
<path d="M14.1065 32.1949C15.2791 33.3816 16.6711 34.323 18.2032 34.9652C19.7352 35.6075 21.3772 35.938 23.0355 35.938C24.6938 35.938 26.3358 35.6075 27.8679 34.9652C29.3999 34.323 30.792 33.3816 31.9645 32.1949L28.8847 29.078C28.1166 29.8554 27.2047 30.472 26.2011 30.8927C25.1975 31.3134 24.1218 31.53 23.0355 31.53C21.9492 31.53 20.8736 31.3134 19.87 30.8927C18.8664 30.472 17.9545 29.8554 17.1863 29.078L14.1065 32.1949Z"/>
</mask>
<path d="M14.1065 32.1949C15.2791 33.3816 16.6711 34.323 18.2032 34.9652C19.7352 35.6075 21.3772 35.938 23.0355 35.938C24.6938 35.938 26.3358 35.6075 27.8679 34.9652C29.3999 34.323 30.792 33.3816 31.9645 32.1949L28.8847 29.078C28.1166 29.8554 27.2047 30.472 26.2011 30.8927C25.1975 31.3134 24.1218 31.53 23.0355 31.53C21.9492 31.53 20.8736 31.3134 19.87 30.8927C18.8664 30.472 17.9545 29.8554 17.1863 29.078L14.1065 32.1949Z" fill="#0D009D" fill-opacity="0.7" stroke="black" stroke-width="0.4" mask="url(#path-21-inside-14_906_12374)"/>
<mask id="path-22-inside-15_906_12374" fill="white">
<path d="M6.72459 6.80561C2.41891 11.1632 -1.93553e-07 17.0733 0 23.2358C1.93553e-07 29.3983 2.41891 35.3084 6.72459 39.666L10.7106 35.6319C7.46212 32.3443 5.63713 27.8853 5.63713 23.2358C5.63712 18.5864 7.46212 14.1273 10.7106 10.8397L6.72459 6.80561Z"/>
</mask>
<path d="M6.72459 6.80561C2.41891 11.1632 -1.93553e-07 17.0733 0 23.2358C1.93553e-07 29.3983 2.41891 35.3084 6.72459 39.666L10.7106 35.6319C7.46212 32.3443 5.63713 27.8853 5.63713 23.2358C5.63712 18.5864 7.46212 14.1273 10.7106 10.8397L6.72459 6.80561Z" fill="#0D009D" fill-opacity="0.7" stroke="black" stroke-width="0.4" mask="url(#path-22-inside-15_906_12374)"/>
<mask id="path-23-inside-16_906_12374" fill="white">
<path d="M6.72459 39.666C11.0303 44.0236 16.87 46.4716 22.9592 46.4716C29.0483 46.4716 34.8881 44.0236 39.1938 39.666L35.2077 35.6319C31.9592 38.9196 27.5533 40.7666 22.9592 40.7666C18.3651 40.7666 13.9592 38.9196 10.7106 35.6319L6.72459 39.666Z"/>
</mask>
<path d="M6.72459 39.666C11.0303 44.0236 16.87 46.4716 22.9592 46.4716C29.0483 46.4716 34.8881 44.0236 39.1938 39.666L35.2077 35.6319C31.9592 38.9196 27.5533 40.7666 22.9592 40.7666C18.3651 40.7666 13.9592 38.9196 10.7106 35.6319L6.72459 39.666Z" fill="#0D009D" fill-opacity="0.7" stroke="black" stroke-width="0.4" mask="url(#path-23-inside-16_906_12374)"/>
</svg>
