<svg width="150" height="150" viewBox="0 0 150 150" fill="none" xmlns="http://www.w3.org/2000/svg">
<path d="M21.967 21.967C36.0322 7.90177 55.1088 2.13402e-06 75 0C94.8912 -2.13402e-06 113.968 7.90176 128.033 21.967L124.015 25.9847C111.016 12.985 93.3843 5.68184 75 5.68185C56.6157 5.68185 38.9843 12.985 25.9847 25.9847L21.967 21.967Z" fill="#515151"/>
<path d="M21.967 128.033C7.90178 113.968 1.48596e-05 94.8913 0 75.0001C-1.48596e-05 55.1088 7.90172 36.0323 21.9669 21.9671L25.9846 25.9847C12.9849 38.9844 5.68183 56.6158 5.68185 75.0001C5.68186 93.3844 12.985 111.016 25.9847 124.015L21.967 128.033Z" fill="#515151"/>
<path d="M128.033 128.033C114.097 141.969 95.2356 149.859 75.5277 149.998C55.8197 150.137 36.8492 142.512 22.7185 128.774L26.6792 124.7C39.7394 137.398 57.2728 144.445 75.4877 144.316C93.7026 144.188 111.135 136.896 124.015 124.015L128.033 128.033Z" fill="#515151"/>
<path d="M128.033 21.967C142.098 36.0322 150 55.1087 150 75C150 94.8912 142.098 113.968 128.033 128.033L124.015 124.015C137.015 111.016 144.318 93.3843 144.318 75C144.318 56.6157 137.015 38.9843 124.015 25.9847L128.033 21.967Z" fill="#515151"/>
<path d="M127.153 21.1014C127.718 21.6476 128.273 22.2026 128.82 22.7662L124.743 26.7233C124.237 26.2024 123.724 25.6895 123.202 25.1847L127.153 21.1014Z" fill="black"/>
<path d="M21.2638 22.6796C21.8118 22.1169 22.3685 21.5628 22.9338 21.0175L26.8782 25.1071C26.3557 25.6111 25.8412 26.1232 25.3348 26.6433L21.2638 22.6796Z" fill="black"/>
<path d="M22.9513 128.999C22.3858 128.454 21.8289 127.9 21.2808 127.338L25.3504 123.373C25.857 123.893 26.3717 124.405 26.8944 124.908L22.9513 128.999Z" fill="black"/>
<path d="M128.823 127.231C128.276 127.795 127.72 128.35 127.155 128.896L123.204 124.813C123.726 124.308 124.24 123.795 124.745 123.275L128.823 127.231Z" fill="black"/>
</svg>
