<svg width="70" height="74" viewBox="0 0 70 74" fill="none" xmlns="http://www.w3.org/2000/svg">
<rect width="24.1007" height="24.1007" transform="matrix(0.726571 -0.687092 0.726571 0.687092 17.5 35.2943)" fill="#000697" fill-opacity="0.01"/>
<rect x="10.2358" width="13.2075" height="0.312248" fill="#0000FF"/>
<rect width="12.8537" height="0.321343" transform="matrix(0.726571 -0.687092 0.726571 0.687092 0 9.14403)" fill="#0000FF"/>
<rect width="12.8537" height="0.321343" transform="matrix(0.726571 0.687092 -0.726571 0.687092 24.3372 0.312271)" fill="#0000FF"/>
<rect y="22.794" width="12.4899" height="0.330189" transform="rotate(-90 0 22.794)" fill="#0000FF"/>
<rect width="12.8537" height="0.321343" transform="matrix(-0.726571 -0.687092 0.726571 -0.687092 9.33923 32.4711)" fill="#0000FF"/>
<rect x="10.2358" width="13.2075" height="0.312248" fill="#0000FF"/>
<rect width="12.8537" height="0.321343" transform="matrix(0.726571 -0.687092 0.726571 0.687092 0 9.14403)" fill="#0000FF"/>
<rect width="13.2977" height="0.321343" transform="matrix(0.726571 0.687092 -0.726571 0.687092 24.3372 0.312271)" fill="#0000FF"/>
<rect x="69.6697" y="23.1063" width="12.4899" height="0.330189" transform="rotate(-90 69.6697 23.1063)" fill="#0000FF"/>
<rect x="46.5565" y="0.312271" width="13.2075" height="0.312248" fill="#0000FF"/>
<rect width="12.8537" height="0.321343" transform="matrix(0.726571 -0.687092 0.726571 0.687092 36.3207 9.45618)" fill="#0000FF"/>
<rect width="12.8537" height="0.321343" transform="matrix(0.726571 0.687092 -0.726571 0.687092 60.658 0.624496)" fill="#0000FF"/>
<rect width="12.8537" height="0.321343" transform="matrix(-0.726571 0.687092 -0.726571 -0.687092 69.9971 23.9516)" fill="#0000FF"/>
<rect width="12.211" height="0.321343" transform="matrix(-0.726571 -0.687092 0.726571 -0.687092 45.233 33.0041)" fill="#0000FF"/>
<rect width="12.211" height="0.321343" transform="matrix(-0.726571 0.687092 -0.726571 -0.687092 33.5396 24.5761)" fill="#0000FF"/>
<rect y="59.6393" width="12.4899" height="0.330189" transform="rotate(-90 0 59.6393)" fill="#0000FF"/>
<rect x="23.4406" y="69.6286" width="13.2075" height="0.312248" transform="rotate(-180 23.4406 69.6286)" fill="#0000FF"/>
<rect width="12.8537" height="0.321343" transform="matrix(-0.726571 0.687092 -0.726571 -0.687092 33.6763 60.4845)" fill="#0000FF"/>
<rect width="12.8537" height="0.321343" transform="matrix(-0.726571 -0.687092 0.726571 -0.687092 9.33923 69.3163)" fill="#0000FF"/>
<rect width="12.8537" height="0.321343" transform="matrix(0.726571 -0.687092 0.726571 0.687092 0 45.9892)" fill="#0000FF"/>
<rect width="12.211" height="0.321343" transform="matrix(0.726571 0.687092 -0.726571 0.687092 24.6674 37.4697)" fill="#0000FF"/>
<rect x="69.6697" y="59.9515" width="12.4899" height="0.330189" transform="rotate(-90 69.6697 59.9515)" fill="#0000FF"/>
<path d="M46.2264 37.782V37.4697H50.1887L49.8585 37.782H46.2264Z" fill="#0000FF"/>
<path d="M46.2264 32.786V33.0982H50.1887L49.8585 32.786H46.2264Z" fill="#0000FF"/>
<path d="M23.7736 37.4697V37.1575H19.4811L19.8388 37.4697H23.7736Z" fill="#0000FF"/>
<path d="M23.7736 32.786V33.0982H19.8113L20.1415 32.786H23.7736Z" fill="#0000FF"/>
<path d="M36.6509 23.7308H36.3207V19.9838L36.6509 20.2961V23.7308Z" fill="#0000FF"/>
<path d="M33.3491 23.7308H33.6793V19.9838L33.3491 20.2961V23.7308Z" fill="#0000FF"/>
<path d="M36.6509 46.8372H36.3207V50.5841L36.6509 50.2719V46.8372Z" fill="#0000FF"/>
<path d="M33.3491 46.8372H33.6793V50.5841L33.3491 50.2719V46.8372Z" fill="#0000FF"/>
<rect width="12.211" height="0.321343" transform="matrix(0.726571 -0.687092 0.726571 0.687092 36.3207 45.8598)" fill="#0000FF"/>
<rect width="12.8537" height="0.321343" transform="matrix(0.726571 0.687092 -0.726571 0.687092 60.658 37.4697)" fill="#0000FF"/>
<rect x="59.7612" y="69.9408" width="13.2075" height="0.312248" transform="rotate(-180 59.7612 69.9408)" fill="#0000FF"/>
<rect width="12.8537" height="0.321343" transform="matrix(-0.726571 0.687092 -0.726571 -0.687092 69.9971 60.7968)" fill="#0000FF"/>
<rect width="13.2647" height="0.321343" transform="matrix(-0.726571 -0.687092 0.726571 -0.687092 45.6599 69.6286)" fill="#0000FF"/>
<rect x="0.726571" width="8.31896" height="8.31896" transform="matrix(0.726571 -0.687092 0.726571 0.687092 28.4299 35.6289)" fill="#0000FF" fill-opacity="0.5" stroke="#0000FF"/>
<rect width="24.1007" height="24.1007" transform="matrix(0.726571 -0.687092 0.726571 0.687092 17.5 39.3535)" fill="#000697" fill-opacity="0.01"/>
<rect x="10.2358" y="4.05923" width="13.2075" height="0.312248" fill="#0000FF"/>
<rect width="12.8537" height="0.321343" transform="matrix(0.726571 -0.687092 0.726571 0.687092 0 13.2032)" fill="#0000FF"/>
<rect width="12.8537" height="0.321343" transform="matrix(0.726571 0.687092 -0.726571 0.687092 24.3372 4.37144)" fill="#0000FF"/>
<rect y="26.8533" width="12.4899" height="0.330189" transform="rotate(-90 0 26.8533)" fill="#0000FF"/>
<rect width="12.8537" height="0.321343" transform="matrix(-0.726571 -0.687092 0.726571 -0.687092 9.33923 36.5303)" fill="#0000FF"/>
<rect x="10.2358" y="4.05923" width="13.2075" height="0.312248" fill="#0000FF"/>
<rect width="12.8537" height="0.321343" transform="matrix(0.726571 -0.687092 0.726571 0.687092 0 13.2032)" fill="#0000FF"/>
<rect width="13.2977" height="0.321343" transform="matrix(0.726571 0.687092 -0.726571 0.687092 24.3372 4.37144)" fill="#0000FF"/>
<rect x="69.6697" y="27.1655" width="12.4899" height="0.330189" transform="rotate(-90 69.6697 27.1655)" fill="#0000FF"/>
<rect x="46.5565" y="4.37144" width="13.2075" height="0.312248" fill="#0000FF"/>
<rect width="12.8537" height="0.321343" transform="matrix(0.726571 -0.687092 0.726571 0.687092 36.3207 13.5155)" fill="#0000FF"/>
<rect width="12.8537" height="0.321343" transform="matrix(0.726571 0.687092 -0.726571 0.687092 60.658 4.68372)" fill="#0000FF"/>
<rect width="12.8537" height="0.321343" transform="matrix(-0.726571 0.687092 -0.726571 -0.687092 69.9971 28.0108)" fill="#0000FF"/>
<rect width="12.211" height="0.321343" transform="matrix(-0.726571 -0.687092 0.726571 -0.687092 45.233 37.0633)" fill="#0000FF"/>
<rect width="12.211" height="0.321343" transform="matrix(-0.726571 0.687092 -0.726571 -0.687092 33.5396 28.6353)" fill="#0000FF"/>
<rect y="63.6985" width="12.4899" height="0.330189" transform="rotate(-90 0 63.6985)" fill="#0000FF"/>
<rect x="23.4406" y="73.6877" width="13.2075" height="0.312248" transform="rotate(-180 23.4406 73.6877)" fill="#0000FF"/>
<rect width="12.8537" height="0.321343" transform="matrix(-0.726571 0.687092 -0.726571 -0.687092 33.6763 64.5438)" fill="#0000FF"/>
<rect width="12.8537" height="0.321343" transform="matrix(-0.726571 -0.687092 0.726571 -0.687092 9.33923 73.3755)" fill="#0000FF"/>
<rect width="12.8537" height="0.321343" transform="matrix(0.726571 -0.687092 0.726571 0.687092 0 50.0484)" fill="#0000FF"/>
<rect width="12.211" height="0.321343" transform="matrix(0.726571 0.687092 -0.726571 0.687092 24.6674 41.5289)" fill="#0000FF"/>
<rect x="69.6697" y="64.0107" width="12.4899" height="0.330189" transform="rotate(-90 69.6697 64.0107)" fill="#0000FF"/>
<path d="M46.2264 41.8411V41.5289H50.1887L49.8585 41.8411H46.2264Z" fill="#0000FF"/>
<path d="M46.2264 36.8452V37.1575H50.1887L49.8585 36.8452H46.2264Z" fill="#0000FF"/>
<path d="M23.7736 41.5289V41.2167H19.4811L19.8388 41.5289H23.7736Z" fill="#0000FF"/>
<path d="M23.7736 36.8452V37.1575H19.8113L20.1415 36.8452H23.7736Z" fill="#0000FF"/>
<path d="M36.6509 27.79H36.3207V24.0431L36.6509 24.3553V27.79Z" fill="#0000FF"/>
<path d="M33.3491 27.79H33.6793V24.0431L33.3491 24.3553V27.79Z" fill="#0000FF"/>
<path d="M36.6509 50.8963H36.3207V54.6433L36.6509 54.3311V50.8963Z" fill="#0000FF"/>
<path d="M33.3491 50.8963H33.6793V54.6433L33.3491 54.3311V50.8963Z" fill="#0000FF"/>
<rect width="12.211" height="0.321343" transform="matrix(0.726571 -0.687092 0.726571 0.687092 36.3207 49.9191)" fill="#0000FF"/>
<rect width="12.8537" height="0.321343" transform="matrix(0.726571 0.687092 -0.726571 0.687092 60.658 41.5289)" fill="#0000FF"/>
<rect x="59.7612" y="74" width="13.2075" height="0.312248" transform="rotate(-180 59.7612 74)" fill="#0000FF"/>
<rect width="12.8537" height="0.321343" transform="matrix(-0.726571 0.687092 -0.726571 -0.687092 69.9971 64.856)" fill="#0000FF"/>
<rect width="13.2647" height="0.321343" transform="matrix(-0.726571 -0.687092 0.726571 -0.687092 45.6599 73.6877)" fill="#0000FF"/>
<rect x="0.726571" width="8.31896" height="8.31896" transform="matrix(0.726571 -0.687092 0.726571 0.687092 28.4299 39.6882)" fill="#0000FF" fill-opacity="0.5" stroke="#0000FF"/>
</svg>
