<svg width="290" height="48" viewBox="0 0 290 48" fill="none" xmlns="http://www.w3.org/2000/svg">
<rect x="55.7063" y="47.934" width="1.11474" height="30.5838" transform="rotate(-90 55.7063 47.934)" fill="#0000FF"/>
<rect x="85.1978" width="1.09228" height="47.3766" fill="#0000FF"/>
<rect x="95.5745" width="1.09228" height="47.3766" fill="#0000FF"/>
<rect x="151.827" width="1.09228" height="47.934" fill="#0000FF"/>
<rect x="95.5745" y="47.934" width="1.11474" height="33.3145" transform="rotate(-90 95.5745 47.934)" fill="#0000FF"/>
<rect x="132.166" y="1.11475" width="1.11474" height="40.4143" transform="rotate(-90 132.166 1.11475)" fill="#0000FF"/>
<rect x="55.7063" width="1.09228" height="46.8193" fill="#0000FF"/>
<rect x="180.226" y="47.934" width="1.11474" height="30.5838" transform="rotate(-90 180.226 47.934)" fill="#0000FF"/>
<rect x="209.718" width="1.09228" height="47.3766" fill="#0000FF"/>
<rect x="180.226" width="1.09228" height="46.8193" fill="#0000FF"/>
<rect x="224.463" width="1.09228" height="47.934" fill="#0000FF"/>
<rect x="261.055" width="1.09228" height="47.934" fill="#0000FF"/>
<rect x="224.463" y="1.11475" width="1.11474" height="28.9454" transform="rotate(-90 224.463 1.11475)" fill="#0000FF"/>
<rect x="261.055" y="1.11475" width="1.11474" height="28.9454" transform="rotate(-90 261.055 1.11475)" fill="#0000FF"/>
<rect x="261.055" y="24.5244" width="1.11474" height="28.9454" transform="rotate(-90 261.055 24.5244)" fill="#0000FF"/>
<rect x="261.055" y="47.934" width="1.11474" height="28.9454" transform="rotate(-90 261.055 47.934)" fill="#0000FF"/>
<rect width="1.05636" height="44.4243" transform="matrix(0.965767 -0.259411 0.454407 0.890794 4.14209 0.274048)" fill="#0000FF"/>
<rect width="1.05636" height="43.8337" transform="matrix(0.965767 0.259411 -0.454407 0.890794 44.2168 0.249756)" fill="#0000FF"/>
<rect width="1.05436" height="53.3875" transform="matrix(0.966281 -0.257491 0.457282 0.889322 0 0.521362)" fill="#0000FF"/>
<rect width="1.05436" height="52.8187" transform="matrix(0.966281 0.257491 -0.457282 0.889322 48.4648 0.492432)" fill="#0000FF"/>
</svg>
